<svg xmlns="http://www.w3.org/2000/svg" viewBox="0 0 392 191.2"><defs><style>.cls-1{fill:#fff;}</style></defs><title>awr-logo</title><g id="Layer_8" data-name="Layer 8"><polygon class="cls-1" points="267.8 7.21 267.78 7.27 215.71 183.85 268.43 183.85 320.5 7.27 320.52 7.21 267.8 7.21"/><polygon class="cls-1" points="5.43 183.84 57.52 183.84 81.76 101.67 55.71 13.35 5.43 183.84"/><polygon class="cls-1" points="239.32 89.47 217.46 12.56 191.38 100.98 213.6 176.69 239.32 89.47"/><polygon class="cls-1" points="109.88 7.36 109.9 7.42 161.97 183.99 110.21 183.99 110.21 183.99 110.24 183.99 58.17 7.41 58.15 7.36 109.88 7.36"/><polygon class="cls-1" points="139 88.58 162.12 7.24 215.04 7.24 165.03 176.82 164.94 176.54 139 88.58"/><polygon class="cls-1" points="69.2 158.76 98.54 158.76 89.63 128.57 78.11 128.57 69.2 158.76"/><path class="cls-1" d="M342.28,80.92a23.24,23.24,0,0,1-2.94,5.74l-.07.09c-.4.56-.81,1.1-1.26,1.62l-.23.24c-.41.46-.83.91-1.27,1.35-.16.15-.33.29-.5.44-.38.35-.77.7-1.18,1s-.61.44-.92.66-.6.45-.93.66a23.18,23.18,0,0,1-2,1.16l-32.69,16.63h0l8,27.24,13.59,46.09h52.72L356.37,128.7,342.28,80.92Z"/><path class="cls-1" d="M386.57,73.25c0-1.49-.07-3-.16-4.43,0-.29,0-.57-.06-.85l0-.28c-.11-1.37-.26-2.72-.46-4.06,0-.1,0-.2,0-.29-.22-1.45-.5-2.88-.81-4.3-.07-.31-.14-.62-.21-.93-.31-1.33-.66-2.64-1-3.94l-.07-.25c-.44-1.43-.93-2.83-1.46-4.21l-.22-.56A65.77,65.77,0,0,0,378.13,41l0,0A66.29,66.29,0,0,0,347.51,13a65.53,65.53,0,0,0-9.25-3.34,92.48,92.48,0,0,0-13.49-2.29l-2.09,7.09-11.1,37.64A23,23,0,0,1,342.93,68c.15.65.27,1.29.37,1.94l16.61,56.33a66,66,0,0,0,23.84-33.89v0c.41-1.38.78-2.77,1.1-4.19.05-.22.1-.44.15-.66.32-1.44.6-2.9.82-4.38,0-.1,0-.2,0-.3.19-1.33.34-2.67.45-4,0-.37.06-.73.08-1.1.1-1.45.16-2.92.16-4.4h0Z"/></g></svg>
