<svg id="Layer_1" data-name="Layer 1" xmlns="http://www.w3.org/2000/svg" viewBox="0 0 100 100"><defs><style>.cls-1{fill:#f0f0f0;}</style></defs><title>dftba-logo</title><g id="qzYbrq.tif"><path class="cls-1" d="M50.77,78.77A35.8,35.8,0,0,1,14.71,42C15.3,21.36,32.36,7.27,51,7.67a35.74,35.74,0,0,1,34.7,36.65A34.94,34.94,0,0,1,50.77,78.77Zm-.59-2a33.64,33.64,0,1,0-33.65-33.5A33.72,33.72,0,0,0,50.19,76.76Z"/><path class="cls-1" d="M53.18,82.75c3.49,2.5,7,5,10.67,7.59-1,.89-1.63,1.45-2.22,2-2.38-2.13-4.47-4.32-6.91-6.11-4.81-3.52-4-3.58-8.95,0a83.92,83.92,0,0,0-6.88,6.14c-.46-.37-1.11-.93-1.88-1.54a39,39,0,0,1,10.89-8,5.9,5.9,0,0,0-5.06.89c-1.73,1.11-3.36,2.34-5.12,3.42a14,14,0,0,1-17.37-1.7,2.52,2.52,0,0,0-.71-.34,4.53,4.53,0,0,0,.31-.4c.8.31,1.6.68,2.44.93A14.5,14.5,0,0,0,32.33,85c3.67-1.6,7.28-3.52,11.38-3.64,2.22-.06,4.47.65,6.69.65s4.47-.83,6.66-.68A21.66,21.66,0,0,1,63.88,83c8,3.39,8.42,3.52,16.72,1.57a14,14,0,0,1-9.69,4.57,16.78,16.78,0,0,1-10.09-3.27c-.93-.62-1.88-1.26-2.78-1.94A5.78,5.78,0,0,0,53.18,82.75Z"/><path class="cls-1" d="M75.08,78.52c2.71-2.78,3.79-6.32,4.9-9.87a26.4,26.4,0,0,1,5.37-9.53c-.59,3.24-1.08,6.35-1.7,9.44a12.81,12.81,0,0,1-3.36,6.2c3.49-2,7.53-4,11.32-6.45a34.65,34.65,0,0,0,4.72-4.2c.06,2.68-3.67,7.59-8,10.52C84.33,77.35,79.61,77.41,75.08,78.52Z"/><path class="cls-1" d="M25,78.8c-1.94-.34-4.16-.71-6.39-1.14C11.78,76.33,7.19,72.29,4.32,66.15a6.42,6.42,0,0,1-.49-1.94c2.16,3.7,5.83,5.34,9.38,7.16,2.59,1.33,5,2.93,7.74,4.53-5.37-4.13-4.35-10.55-6.14-16,1.39,1,3.82,4.57,4.81,7.22.62,1.63,1,3.36,1.76,4.94C22.49,74.45,23.81,76.67,25,78.8Z"/><path class="cls-1" d="M0,51c1.51,2.25,2.62,4.13,4,5.8,2.22,2.65,4.66,5.15,7.25,8-2.59-5.09-.06-9.87.34-14.84a8.61,8.61,0,0,1,.62,1.7c.46,2.93,1,5.86,1.3,8.82.43,3.55.52,7.13,2.28,10.43C10.09,67.2,3.61,64.33,1.17,57.27A41.69,41.69,0,0,1,0,51Z"/><path class="cls-1" d="M89,49.43c0,4.87,2.65,9.62.4,14.65,2.87-5.06,8.7-7.8,10.61-13.76,0,.8.06,1.6,0,2.38-.56,5.55-3.55,9.65-7.9,12.83-2.41,1.76-4.94,3.3-7.62,5.09a18.62,18.62,0,0,0,1.2-3.36c.59-3.86,1-7.74,1.51-11.57.31-2.13.83-4.26,1.26-6.35A3.12,3.12,0,0,1,89,49.43Z"/><path class="cls-1" d="M69.16,80.56c4.07-.46,8.14-.86,12.22-1.39a15.37,15.37,0,0,0,7.56-3.12,27,27,0,0,1-1.79,2.41c-4.5,4.75-10,6.14-16.32,4.72-2.78-.62-5.58-1.26-8.36-1.91.06-.09.09-.25.15-.25,3.95-.83,6.91-3.18,9.59-6a56.26,56.26,0,0,1,6.08-5.4C76.07,74,75.08,79.35,69.16,80.56Z"/><path class="cls-1" d="M38.16,81.64c-4.32.77-8.61,1.91-13,2.25-5.83.43-10.24-2.44-13.51-7.22,3.49,2.87,7.71,3,11.88,3.39,2.59.22,5.18.56,7.56.8a19.6,19.6,0,0,1-3-1.39,10.88,10.88,0,0,1-2.59-2.59,27.39,27.39,0,0,1-1.91-3.33C23,72.48,22.46,71.37,21.75,70a6,6,0,0,1,1.14.65c2,1.76,4.1,3.45,6,5.34a16.84,16.84,0,0,0,9.25,5.21A1.82,1.82,0,0,1,38.16,81.64Z"/><path class="cls-1" d="M8.73,59.71c-1.79-2.25-3.3-4-4.72-5.92C0,48.51-.4,42.65,1.39,36.45,1.26,40.64,3.55,44,4.94,47.71c.52,1.39.86,2.84,1.39,4.29-.15-5.27,3.49-9,5.74-13.42-.31,2.25-.52,4.53-.93,6.79A41.29,41.29,0,0,1,9.9,50.11C9,53.14,8,56.1,8.73,59.71Z"/><path class="cls-1" d="M91.83,58.66c.65-5.83-2.71-10.8-3.3-16.35A39.47,39.47,0,0,1,88.19,38c1.91,4.66,6.48,8.24,5.61,14.1.71-5.74,5-10.33,4.84-16.32,1.67,4.1,1.39,8.24.19,12.37S94.17,55.08,91.83,58.66Z"/><path class="cls-1" d="M85.1,28.3c1.73,1.6,3.39,3.21,5.09,4.75a12.31,12.31,0,0,1,3.67,5.77c-1.08-5.4,1.57-10.89-.43-16.26A15.28,15.28,0,0,1,97.1,36.14a93.71,93.71,0,0,1-3,9.78c-.83-3.92-3.24-6.63-5.37-9.47A19.17,19.17,0,0,1,85.1,28.3Z"/><path class="cls-1" d="M6,40.36c.89-5.27,5.43-7.77,8.85-11.23a49.13,49.13,0,0,1-1.94,5.15c-.83,1.63-2,3.08-3,4.66-1.39,2.28-2.75,4.63-4,6.79C5.06,43.2,4,40.43,3.12,37.56A15.53,15.53,0,0,1,6.63,22.94c-1.36,3.08-.86,6-.68,8.85S6,37.5,6,40.36Z"/><path class="cls-1" d="M85.63,15.75c3.18.65,6.23,4.1,6.79,7.77a39.43,39.43,0,0,1,.15,5.06c0,1.63,0,3.27,0,5.18A14.86,14.86,0,0,0,91,31.88c-2.07-1.85-4.2-3.64-6.29-5.43a10.93,10.93,0,0,1-3.92-6.82l9.59,7.87C88.74,23.58,89.11,19,85.63,15.75Z"/><path class="cls-1" d="M13.7,16.43c-3.3,3.39-2.56,8.14-4.32,11.94,3.24-2.81,6.45-5.58,9.93-8.64a23.17,23.17,0,0,1-1.79,4.2,30.36,30.36,0,0,1-4,4.47c-2,1.94-4.13,3.76-6,5.43,0-3.27-.34-7,.09-10.64C8.11,19.82,10.55,17.66,13.7,16.43Z"/><path class="cls-1" d="M87.82,23.68C82.73,20.53,80,15.38,76,11.22,82.91,12.73,86.37,16.52,87.82,23.68Z"/><path class="cls-1" d="M12.06,24c.83-6.57,4.63-10.61,11.41-12.43C19.46,15.9,17.09,21.21,12.06,24Z"/><path class="cls-1" d="M43.06,52.24c-2.38-3-4.13-6.35-6.88-8.39-4-3-5.92-7.8-10.24-10.33a3.47,3.47,0,0,1-1.17-1.73c-.12-.31.22-.8.49-1.14-.25-1.14-2-1.7-1.48-3.76,2.78,1.88,5.34,3.61,7.87,5.34l.37-.28c-.19-.59-.34-1.2-.56-1.79-.8-2.22-1.7-4.41-2.41-6.63-.12-.43.34-1,.56-1.6l1.3.56c0-1.11.65-1.42,1.54-.68a9.3,9.3,0,0,1,1.79,2.28c1.14,1.76,2.19,3.58,3.49,5.77-.12-1.45-1.11-2.59.34-3.42,1.63,2.19,3.24,4.29,4.78,6.48a3.11,3.11,0,0,1,.56,1.85c-.65,5.71,3.58,8.64,6.82,12.65a51.28,51.28,0,0,1,4.32-5.15c2.1-2,2.28-4.41,2.44-7a6.43,6.43,0,0,1,1-2.93c1.3-2,2.78-3.82,4.23-5.8,1.63.68.43,1.91.46,3.27,1.33-2.19,2.41-4.07,3.61-6a8,8,0,0,1,1.63-2c.8-.62,1.57-.59,1.51.62.46-.12,1-.28,1.45-.4.12.56.52,1.2.37,1.67-.71,2.16-1.54,4.23-2.34,6.35-.22.59-.43,1.2-.65,1.82l.37.37L76.44,27c.31,1.39.31,1.39-1.11,3.64,0,.62.25,1.39,0,1.79a17.79,17.79,0,0,1-2.13,2.19c-1.57,1.67-3.12,3.36-4.69,5.06a15.86,15.86,0,0,1-2.41,2.56c-3.79,2.53-5.83,6.54-8.73,10.12,1.14.62,2.1,1.17,3.08,1.7a19.42,19.42,0,0,1,7.46,6.29c1.94,2.9,1.82,5-.4,7.71q-.46.56-.93,1c-3,2.93-3.92,3-7.13.34s-6.26-5.09-9.65-7.87a7,7,0,0,1-.93,1.17c-3.24,2.75-6.48,5.52-9.84,8.14-.56.43-1.7.19-2.56.19-.28,0-.56-.28-.8-.43-5.58-3.64-6-8.27-1-12.74a48.58,48.58,0,0,1,5.64-3.95A16.42,16.42,0,0,1,43.06,52.24Z"/></g></svg>