<svg id="Layer_1" data-name="Layer 1" xmlns="http://www.w3.org/2000/svg" viewBox="0 0 100 100"><defs><style>.cls-1{fill:#a00;}.cls-2{fill:#fff;}</style></defs><title>snapchat</title><path class="cls-1" d="M50,0A50,50,0,1,1,0,49.93,49.9,49.9,0,0,1,50,0Z"/><path class="cls-2" d="M33.16,39.63h.13c.09,1.56.16,3.12.28,4.68,0,.48-.16.73-.59.67a14.67,14.67,0,0,1-2.76-.58,3.54,3.54,0,0,0-3.13.22,2.19,2.19,0,0,0-.31,3.88,13.32,13.32,0,0,0,2.57,1.35c.82.37,1.72.6,2.53,1a1.88,1.88,0,0,1,1,2.85A23.65,23.65,0,0,1,31,57c-2.49,3.62-5.7,6.23-10.14,7.09A1.46,1.46,0,0,0,20,66.48a3.78,3.78,0,0,0,2.22,1.6c1.69.51,3.4.94,5.11,1.35a.78.78,0,0,1,.7.67c.14.66.31,1.32.49,2a1.56,1.56,0,0,0,1.89,1.34c.72-.06,1.43-.23,2.14-.35a9.76,9.76,0,0,1,8.11,1.75c.67.53,1.39,1,2.12,1.48a12.46,12.46,0,0,0,13.5.6,25.62,25.62,0,0,0,3.28-2.19A9.5,9.5,0,0,1,66.73,73c.92.11,1.83.31,2.75.41a1.64,1.64,0,0,0,2-1.4c.17-.61.32-1.23.45-1.85.09-.44.32-.59.76-.7a55.42,55.42,0,0,0,5.35-1.47A4.55,4.55,0,0,0,80,66.43a1.42,1.42,0,0,0-1-2.31,18,18,0,0,1-2.22-.61c-4.65-1.76-7.63-5.23-9.68-9.6-.71-1.51-.36-2.44,1.16-3.14.78-.36,1.61-.59,2.42-.89a6.59,6.59,0,0,0,2.88-1.72,2.1,2.1,0,0,0-.35-3.26,3.55,3.55,0,0,0-3.71-.5,11.32,11.32,0,0,1-2.48.62c-.51.09-.72-.17-.69-.77.14-2.51.29-5,.29-7.54a14,14,0,0,0-6.81-12.43c-6.1-3.89-12.55-3.91-18.87-.6a13.79,13.79,0,0,0-7.35,9.86A50.71,50.71,0,0,0,33.16,39.63Z"/></svg>